/* XPM */
static char *_9f5ebfa779f4d80bf822eeda9d812fe4ubJdfFMoGwUg8dX[] = {
/* columns rows colors chars-per-pixel */
"64 64 256 2 ",
"   c black",
".  c #0000A8",
"X  c #00A800",
"o  c #00A8A8",
"O  c #A80000",
"+  c #A800A8",
"@  c #A85400",
"#  c gray66",
"$  c gray33",
"%  c #5454FC",
"&  c #54FC54",
"*  c #54FCFC",
"=  c #FC5454",
"-  c #FC54FC",
";  c #FCFC54",
":  c gray99",
">  c #ECECEC",
",  c gainsboro",
"<  c #D0D0D0",
"1  c #C0C0C0",
"2  c #B4B4B4",
"3  c gray66",
"4  c #989898",
"5  c gray55",
"6  c #7C7C7C",
"7  c gray44",
"8  c #646464",
"9  c gray33",
"0  c #484848",
"q  c gray22",
"w  c #2C2C2C",
"e  c #202020",
"r  c #FC0000",
"t  c #EC0000",
"y  c #E00000",
"u  c #D40000",
"i  c #C80000",
"p  c #BC0000",
"a  c #B00000",
"s  c #A40000",
"d  c #980000",
"f  c #880000",
"g  c #7C0000",
"h  c #700000",
"j  c #640000",
"k  c #580000",
"l  c #4C0000",
"z  c #400000",
"x  c #FCD8D8",
"c  c #FCB8B8",
"v  c #FC9C9C",
"b  c #FC7C7C",
"n  c #FC5C5C",
"m  c #FC4040",
"M  c #FC2020",
"N  c #FC0000",
"B  c #FCA85C",
"V  c #FC9840",
"C  c #FC8820",
"Z  c #FC7800",
"A  c #E46C00",
"S  c #CC6000",
"D  c #B45400",
"F  c #9C4C00",
"G  c #FCFCD8",
"H  c #FCFCB8",
"J  c #FCFC9C",
"K  c #FCFC7C",
"L  c #FCF85C",
"P  c #FCF440",
"I  c #FCF420",
"U  c #FCF400",
"Y  c #E4D800",
"T  c #CCC400",
"R  c #B4AC00",
"E  c #9C9C00",
"W  c #848400",
"Q  c #706C00",
"!  c #585400",
"~  c #404000",
"^  c #D0FC5C",
"/  c #C4FC40",
"(  c #B4FC20",
")  c #A0FC00",
"_  c #90E400",
"`  c #80CC00",
"'  c #74B400",
"]  c #609C00",
"[  c #D8FCD8",
"{  c #BCFCB8",
"}  c #9CFC9C",
"|  c #80FC7C",
" . c #60FC5C",
".. c #40FC40",
"X. c #20FC20",
"o. c #00FC00",
"O. c #00FC00",
"+. c #00EC00",
"@. c #00E000",
"#. c #00D400",
"$. c #04C800",
"%. c #04BC00",
"&. c #04B000",
"*. c #04A400",
"=. c #049800",
"-. c #048800",
";. c #047C00",
":. c #047000",
">. c #046400",
",. c #045800",
"<. c #044C00",
"1. c #044000",
"2. c #D8FCFC",
"3. c #B8FCFC",
"4. c #9CFCFC",
"5. c #7CFCF8",
"6. c #5CFCFC",
"7. c #40FCFC",
"8. c #20FCFC",
"9. c #00FCFC",
"0. c #00E4E4",
"q. c #00CCCC",
"w. c #00B4B4",
"e. c #009C9C",
"r. c #008484",
"t. c #007070",
"y. c #005858",
"u. c #004040",
"i. c #5CBCFC",
"p. c #40B0FC",
"a. c #20A8FC",
"s. c #009CFC",
"d. c #008CE4",
"f. c #007CCC",
"g. c #006CB4",
"h. c #005C9C",
"j. c #D8D8FC",
"k. c #B8BCFC",
"l. c #9C9CFC",
"z. c #7C80FC",
"x. c #5C60FC",
"c. c #4040FC",
"v. c #2024FC",
"b. c #0004FC",
"n. c #0000FC",
"m. c #0000EC",
"M. c #0000E0",
"N. c #0000D4",
"B. c #0000C8",
"V. c #0000BC",
"C. c #0000B0",
"Z. c #0000A4",
"A. c #000098",
"S. c #000088",
"D. c #00007C",
"F. c #000070",
"G. c #000064",
"H. c #000058",
"J. c #00004C",
"K. c #000040",
"L. c #282828",
"P. c #FCE034",
"I. c #FCD424",
"U. c #FCCC18",
"Y. c #FCC008",
"T. c #FCB400",
"R. c #B420FC",
"E. c #A800FC",
"W. c #9800E4",
"Q. c #8000CC",
"!. c #7400B4",
"~. c #60009C",
"^. c #500084",
"/. c #440070",
"(. c #340058",
"). c #280040",
"_. c #FCD8FC",
"`. c #FCB8FC",
"'. c #FC9CFC",
"]. c #FC7CFC",
"[. c #FC5CFC",
"{. c #FC40FC",
"}. c #FC20FC",
"|. c #FC00FC",
" X c #E000E4",
".X c #C800CC",
"XX c #B400B4",
"oX c #9C009C",
"OX c #840084",
"+X c #6C0070",
"@X c #580058",
"#X c #400040",
"$X c #FCE8DC",
"%X c #FCE0D0",
"&X c #FCD8C4",
"*X c #FCD4BC",
"=X c #FCCCB0",
"-X c #FCC4A4",
";X c #FCBC9C",
":X c #FCB890",
">X c #FCB080",
",X c #FCA470",
"<X c #FC9C60",
"1X c #F0945C",
"2X c #E88C58",
"3X c #DC8854",
"4X c #D08050",
"5X c #C87C4C",
"6X c #BC7848",
"7X c #B47044",
"8X c #A86840",
"9X c #A0643C",
"0X c #9C6038",
"qX c #905C34",
"wX c #885830",
"eX c #80502C",
"rX c #744C28",
"tX c #6C4824",
"yX c #5C4020",
"uX c #543C1C",
"iX c #483818",
"pX c #403018",
"aX c #382C14",
"sX c #28200C",
"dX c #600064",
"fX c #006464",
"gX c #006060",
"hX c #00001C",
"jX c #00002C",
"kX c #302410",
"lX c #480048",
"zX c #500050",
"xX c #000034",
"cX c gray11",
"vX c #4C4C4C",
"bX c gray36",
"nX c gray25",
"mX c gray19",
"MX c #343434",
"NX c #D8F4F4",
"BX c #B8E8E8",
"VX c #9CDCDC",
"CX c #74C8C8",
"ZX c #48C0C0",
"AX c #20B4B4",
"SX c #20B0B0",
"DX c #00A4A4",
"FX c #009898",
"GX c #008C8C",
"HX c #008484",
"JX c #007C7C",
"KX c #007878",
"LX c #007474",
"PX c #007070",
"IX c #006C6C",
"UX c #980088",
/* pixels */
"  pXpXiXpXuXkXpXyXkXpXuXpXkXkX    z k j z l h z l j l l z z z     kXiXuXkXpXpXkXpXkXuXpXkXkXkX    kXiXkXiXiXkXiXkXuXpXkXpXkXkX  ",
"kX  pXuXpXyXuXuXiXkXiXuXkXkX  z l   z l z k l z l z z z z z   kXkX  kXkXkXpXuXiXuXkXiXpXkXkX  kXpX  kXkXpXuXuXpXkXiXkXpXkXkX  kX",
"uXpX  kXpXuXkXkXiXpXpXkXkX  z h k z   z z j z z k l l z z   kXyXkXkX  kXpXuXpXkXiXkXuXkXkX  pXtXpXkX  kXkXuXuXkXpXpXpXpXkX  kXyX",
"uXpXkX  kXkXpXuXpXpXkXkX  z k k z l z   z k l j j z z z   kXyXpXkXuXkX  kXkXpXkXpXkXkXkX  kXyXuXkXpXkX  kXuXpXpXiXuXpXkX  kXyXyX",
"kXuXuXkX  kXuXuXuXpXkX  z j l z l j j z   z z l z z z   kXuXuXyXuXuXpXkX  kXpXiXpXkXkX  kXuXiXkXkXyXpXkX  kXpXkXkXpXkX  kXtXyXuX",
"pXuXkXpXpX  kXkXkXkX  z j k z l j l z z l   z z z z   kXuXpXpXpXuXkXkXkXkX  kXkXkXkX  kXuXyXuXkXiXpXkXkXkX  kXkXkXkX  kXtXuXuXuX",
"uXuXuXuXkXkX  kXkX  z k l k z l l l z z j z   z z   kXuXpXpXpXkXkXkXuXuXuXiX  kXkX  kXyXuXkXpXuXuXiXuXuXuXkX  kXkX  kXuXpXpXkXpX",
"uXuXuXpXuXuXkX    z k k l z l k l k l l j z z     kXuXuXuXiXuXkXkXuXpXkXpXpXkX    kXyXuXkXkXuXkXpXuXpXuXuXkXkX    kXyXpXiXuXpXuX",
"uXuXpXyXpXkXkX    z l k l z k l z k l l z z z     kXkXuXuXkXkXuXuXuXkXkXkXkXkX    kXuXkXpXtXkXkXuXkXuXuXkXkXkX    pXtXyXyXpXkXuX",
"kXuXuXuXkXkX  z z   z z z l j z z j l l z z   kXuX  kXuXpXkXpXuXkXpXuXkXkXkX  z l   kXkXpXyXkXpXuXkXuXkXkXkX  kXpX  kXpXkXpXuXuX",
"uXuXkXkXkX  z l z l   z l k l z k j z z z   kXyXuXkX  kXkXkXiXuXkXkXuXkXkX  z l z z   kXuXuXkXpXyXkXkXkXkX  kXuXtXkX  kXkXuXuXpX",
"uXpXpXkX  z z k k j l   z l z l k l z z   kXyXtXkXkXpX  kXpXuXpXkXkXkXkX  z k z l k l   kXpXkXyXiXkXkXkX  kXyXyXuXkXpX  kXpXkXpX",
"kXkXkX  z l k k l l z z   z z k l z z   kXyXuXkXkXuXiXkX  kXiXkXkXkXkX  z z k k j k z l   kXiXuXkXkXkX  kXyXiXkXiXpXpXkX  kXiXuX",
"kXkX  z j l k l l k z l l   z z z z   kXiXuXuXkXiXiXkXpXkX  kXkXkXkX  z l j j z z l k j z   kXkXkXkX  kXuXiXkXiXyXpXiXuXpX  pXiX",
"kX  z j k l z l k k l k l z   z z   kXyXyXuXuXpXuXpXpXuXuXkX  kXkX  z l k k z z l l j k z z   kXkX  kXyXuXpXiXyXkXpXpXkXpXkX  kX",
"  z j j l l k k l z z l l l z     kXuXuXuXkXkXiXpXiXiXpXkXkXkX    z l j k z l k l j l z z l z     kXyXkXpXuXtXpXkXtXuXpXiXpXkX  ",
"  l j k l l l l l l z l l z z     pXuXkXkXkXuXyXkXkXpXpXpXkXkX    z z l z l h z z l z l l z z     iXuXuXyXpXiXkXpXuXkXuXpXkXkX  ",
"kX  z l l l l l l j j l z z   z l   kXkXuXuXuXpXkXiXiXpXkXkX  z l   z k l k l l l l l z z z   z z   kXpXiXkXuXpXpXyXiXkXkXkX  kX",
"uXpX  z z l l l h l z z z   z l z z   kXpXpXkXpXiXpXkXkXkX  z h k z   z j l z k k z k l z   z l z l   kXkXkXuXkXuXuXkXkXkX  kXyX",
"kXkXpX  z k z k k z z z   z k z l k l   kXkXkXuXkXpXkXkX  z k k z l z   z z l k l z z z   z z k k j l   kXpXuXiXuXkXkXkX  kXyXyX",
"yXyXpXkX  z l l z z z   z z k k j k z l   kXuXpXkXpXkX  z j l z l j j z   z k z z z z   z l k k l l z z   pXuXpXpXkXkX  kXuXtXpX",
"kXuXpXuXpX  z z z z   z l j j z z l k j z   kXkXpXkX  z j k z l j l z z l   z z z z   z j l k l l k z l l   kXkXkXkX  kXuXyXiXkX",
"pXpXkXkXyXpX  z z   z l k k z z l l j k z z   kXkX  z k l k z l l l z z j z   z z   z j k l z l k k l k l z   kXkX  kXyXyXuXuXpX",
"uXpXkXkXyXkXkX    z l j k z l k l j l z z l z     z k k l z l k l k l l j z z     z j j l l k k l z z l l l z     kXtXtXkXpXiXyX",
"iXpXkXuXuXkXkX    z z l z l h z z l z l l z z     z l k l z k l z k l l z z z     l j k l l l l l l z l l z z     kXuXkXkXyXuXpX",
"uXpXiXuXkXkX  kXkX  z k l k l l l l l z z z   z z   z z z l j z z j l l z z   kXpX  z l l l l l l j j l z z   z l   kXkXuXuXpXkX",
"kXkXuXpXkX  kXuXtXkX  z j l z k k z k l z   z l z l   z l k l z k j z z z   kXpXyXpX  z z l l l h l z z z   z j l z   kXuXuXpXuX",
"iXpXkXkX  kXyXyXiXpXkX  z z l k l z z z   z z k k j l   z l z l k l z z   kXpXuXyXkXkX  z k z k k z z z   z k l z k k   kXpXpXiX",
"kXkXkX  kXuXtXiXkXkXkXkX  z k z z z z   z l k k l l z z   z z k l z z   kXuXuXiXiXkXpXkX  z l l z z z   z l z z k j z z   kXkXpX",
"kXkX  kXtXpXuXkXkXiXiXuXkX  z z z z   z j l k l l k z l l   z z z z   kXyXyXuXuXpXiXpXuXkX  z z z z   z k k j k l z z l z   pXpX",
"kX  kXyXkXkXuXkXpXuXpXpXuXkX  z z   z j k l z l k k l k l z   z z   kXuXuXpXkXpXuXpXpXuXkXkX  z z   z l l l l z z z k k z z   kX",
"  kXuXkXkXuXuXpXpXpXkXpXkXkXkX    z j j l l k k l z z l l l z     kXyXiXuXpXuXiXpXkXpXyXpXuXpX    z j j l l k l z j k l l l z   ",
"  uXuXuXuXpXpXuXuXiXkXpXpXpXkX    l j k l l l l l l z l l z z     iXuXpXuXkXpXpXkXkXpXkXkXkXkX    z k j z l h z l j l l z z z   ",
"z   kXiXkXkXkXpXpXkXkXiXkXkX  z l   z l l l l l l j j l z z   z l   kXkXkXpXkXpXkXuXuXpXkXkX  kXiX  z l z k l z l z z z z z   z ",
"z l   kXkXkXyXkXkXpXkXpXkX  z l z z   z z l l l h l z z z   z l z z   kXuXuXuXyXuXkXuXkXkX  kXpXyXpX  z z j z z k l l z z   z l ",
"k j l   kXkXyXpXuXuXkXkX  z k z l k l   z k z k k z z z   z k z l k l   kXkXkXuXkXpXpXkX  kXyXyXyXkXpX  z k l j j z z z   z z k ",
"l l z z   kXpXkXkXkXkX  z z k k j k z l   z l l z z z   z z k k j k z l   kXuXpXpXkXkX  kXyXyXpXkXkXuXkX  z z l z z z   z l k k ",
"l k z l l   kXkXkXkX  z l j j z z l k j z   z z z z   z l j j z z l k j z   kXkXkXkX  kXuXuXkXiXkXuXuXpXkX  z z z z   z j l k l ",
"k k l k l z   kXkX  z l k k z z l l j k z z   z z   z l k k z z l l j k z z   kXkX  kXyXyXkXiXtXpXiXiXpXuXkX  z z   z j k l z l ",
"l z z l l l z     z l j k z l k l j l z z l z     z l j k z l k l j l z z l z     kXuXyXpXuXuXpXkXkXpXuXuXkXkX    z j j l l k k ",
"l l z l l z z     z z l z l h z z l z l l z z     z z l z l h z z l z l l z z     kXtXiXkXpXpXkXpXkXuXuXkXkXkX    l j k l l l l ",
"l j j l z z   z l   z k l k l l l l l z z z   kXpX  z k l k l l l l l z z z   z l   pXkXuXuXpXuXiXuXuXpXpXkX  kXiX  z l l l l l ",
"h l z z z   z h k z   z j l z k k z k l z   kXuXiXkX  z j l z k k z k l z   z h k z   kXkXuXkXpXuXyXiXkXkX  kXuXyXkX  z z l l l ",
"k z z z   z k k z l z   z z l k l z z z   kXpXpXpXkXpX  z z l k l z z z   z k k z l z   kXkXpXtXyXkXkXkX  kXtXiXuXkXkX  z k z k ",
"z z z   z j l z l j j z   z k z z z z   kXyXtXiXuXuXpXkX  z k z z z z   z j l z l j j z   kXuXkXkXkXkX  kXyXpXpXuXpXuXkX  z l l ",
"z z   z j k z l j l z z l   z z z z   kXtXyXkXkXpXuXkXpXkX  z z z z   z j k z l j l z z l   kXpXkXkX  pXyXpXkXuXuXkXpXpXpX  z z ",
"z   z k l k z l l l z z j z   z z   kXpXuXpXpXkXpXuXkXuXuXkX  z z   z k l k z l l l z z j z   kXkX  kXuXpXkXyXyXkXuXyXiXyXkX  z ",
"  z k k l z l k l k l l j z z     kXyXpXuXuXyXpXiXuXkXuXuXpXkX    z k k l z l k l k l l j z z     kXuXuXyXuXuXpXpXyXkXkXuXpXkX  ",
"  z l k l z k l z k l l z z z     iXkXiXyXuXpXkXuXpXpXyXkXkXkX    z l k l z k l z k l l z z z     pXiXuXpXkXkXpXpXuXkXpXiXkXkX  ",
"pX  z z z l j z z j l l z z   kXpX  kXpXkXkXiXiXpXpXuXkXkXkX  z z   z z z l j z z j l l z z   kXuX  kXuXkXpXuXyXyXuXpXpXkXkX  kX",
"kXkX  z l k l z k j z z z   kXyXuXkX  kXkXuXuXuXkXiXuXkXkX  z l z l   z l k l z k j z z z   kXuXtXkX  kXpXuXuXpXkXkXpXkXkX  kXyX",
"iXpXiX  z l z l k l z z   kXtXiXuXpXkX  kXiXkXkXkXiXkXkX  z z k k j l   z l z l k l z z   kXuXyXuXkXkX  kXkXpXkXkXpXkXkX  kXyXyX",
"yXuXuXkX  z z k l z z   kXtXuXkXuXiXkXkX  kXkXpXuXkXkX  z l k k l l z z   z z k l z z   kXpXuXuXpXiXyXkX  pXpXpXiXpXkX  kXpXuXkX",
"kXkXuXpXkX  z z z z   kXyXiXkXkXuXpXkXuXkX  kXuXkXkX  z j l k l l k z l l   z z z z   kXuXuXyXpXpXuXpXkXkX  kXpXkXkX  kXuXuXyXiX",
"pXpXuXkXpXkX  z z   kXyXiXpXuXuXpXpXpXyXpXkX  kXkX  z j k l z l k k l k l z   z z   kXuXpXiXuXuXpXpXpXyXkXkX  kXkX  kXuXyXuXuXiX",
"uXpXiXpXuXkXkX    kXuXkXkXuXuXpXpXyXpXkXiXuXkX    z j j l l k k l z z l l l z     kXyXkXkXuXpXkXkXpXiXuXkXuXkX    kXtXuXuXuXpXuX",
"kXkXpXiXkXkXkX    kXkXkXyXyXkXkXpXiXkXkXpXkXkX    l j k l l l l l l z l l z z     kXiXkXyXtXpXpXyXuXpXpXkXkXkX    kXyXpXuXkXkXuX",
"uXuXkXpXkXkX  kXiX  pXyXuXkXkXkXpXkXkXyXkXkX  z l   z l l l l l l j j l z z   kXkX  kXpXpXiXkXyXyXkXuXuXkXkX  kXpX  kXiXkXkXiXkX",
"iXpXpXkXkX  kXpXpXkX  kXpXkXuXuXpXuXuXkXkX  z j l z   z z l l l h l z z z   kXtXyXpX  kXkXuXkXpXkXkXpXkXkX  kXtXyXkX  kXkXpXyXuX",
"pXkXkXkX  kXiXpXuXkXkX  kXkXyXiXpXuXkXkX  z k l z k k   z k z k k z z z   kXyXuXiXpXkX  kXuXkXkXuXuXpXkX  kXuXuXuXkXkX  kXpXpXiX",
"pXkXkX  kXyXuXuXkXpXuXkX  kXpXkXkXkXkX  z l z z k j z z   z l l z z z   kXuXuXuXpXpXpXpX  kXkXpXyXkXkX  kXuXkXpXiXkXpXkX  kXiXuX",
"kXkX  kXuXyXpXkXpXuXpXkXpX  kXkXkXkX  z k k j k l z z l z   z z z z   kXyXiXuXiXpXuXuXuXpX  pXuXkXkX  kXyXuXuXuXkXpXuXpXkX  kXkX",
"kX  kXyXpXiXpXiXuXuXiXuXpXkX  kXkX  z l l l l z z z k k z z   z z   kXyXpXpXuXuXpXkXpXpXpXkX  kXkX  kXiXpXpXiXpXpXyXiXkXpXkX  kX",
"  kXtXyXpXpXuXpXpXpXiXpXkXiXkX    z j j l l k l z j k l l l z     kXyXuXpXuXuXkXkXpXuXiXpXkXkX    kXtXpXiXiXpXpXuXuXkXpXuXkXkX  "
};
